<svg xmlns="http://www.w3.org/2000/svg" width="433.599" height="376.929" viewBox="0 0 433.599 376.929">
  <defs>
    <style>
      .cls-1 {
        fill: #27dbdb;
      }

      .cls-2 {
        fill: #97dede;
      }

      .cls-3 {
        fill: #0f43b1;
      }
    </style>
  </defs>
  <g id="Logo" transform="translate(0 0)">
    <path id="Trazado_57" data-name="Trazado 57" class="cls-1" d="M83.948,202.366A38.176,38.176,0,0,1,45.722,164.14H38.18A45.705,45.705,0,0,0,83.948,209.9Z" transform="translate(9.813 42.189)"/>
    <path id="Trazado_58" data-name="Trazado 58" class="cls-1" d="M88.966,226.564A62.4,62.4,0,0,1,26.5,164.14H18.66a70.293,70.293,0,0,0,70.306,70.293Z" transform="translate(4.796 42.189)"/>
    <path id="Trazado_59" data-name="Trazado 59" class="cls-1" d="M93.762,250.4A86.182,86.182,0,0,1,7.542,164.14H0a93.737,93.737,0,0,0,93.762,93.8Z" transform="translate(0 42.189)"/>
    <path id="Trazado_60" data-name="Trazado 60" class="cls-1" d="M154.26,45.752a38.176,38.176,0,0,1,38.226,38.226h7.542A45.706,45.706,0,0,0,154.26,38.21Z" transform="translate(39.649 9.821)"/>
    <path id="Trazado_61" data-name="Trazado 61" class="cls-1" d="M154.26,26.619a62.4,62.4,0,0,1,62.525,62.374h7.844A70.293,70.293,0,0,0,154.26,18.7Z" transform="translate(39.649 4.806)"/>
    <path id="Trazado_62" data-name="Trazado 62" class="cls-1" d="M154.26,7.542A86.182,86.182,0,0,1,240.48,93.8h7.542A93.737,93.737,0,0,0,154.26,0Z" transform="translate(39.649 0)"/>
    <path id="Trazado_63" data-name="Trazado 63" class="cls-2" d="M210.83,135.626a7.542,7.542,0,0,0-10.207,1.358,6.838,6.838,0,0,0,1.383,9.817,7.542,7.542,0,0,0,10.207-1.358,6.838,6.838,0,0,0-1.383-9.817Z" transform="translate(51.185 34.5)"/>
    <path id="Trazado_64" data-name="Trazado 64" class="cls-2" d="M134.7,200.836a7.542,7.542,0,0,0-10.207,1.358,6.891,6.891,0,0,0-.478.754l11.917,7.856.138-.138a6.838,6.838,0,0,0-1.37-9.83Z" transform="translate(31.877 51.261)"/>
    <path id="Trazado_65" data-name="Trazado 65" class="cls-2" d="M213.146,165.754a7.542,7.542,0,0,0,10.207-1.358,6.838,6.838,0,0,0-1.37-9.83,7.542,7.542,0,0,0-10.207,1.358,6.838,6.838,0,0,0,1.37,9.83Z" transform="translate(54.048 39.368)"/>
    <path id="Trazado_66" data-name="Trazado 66" class="cls-2" d="M185.173,239.054a12.394,12.394,0,0,1,11.866-4.425l32.1-39.885a11.313,11.313,0,0,1,.1-14,12.419,12.419,0,0,1,16.882-2.313l10.886-2.753a11.313,11.313,0,0,1,2.25-9.252A12.444,12.444,0,0,1,275,163.381l-20.8-17.058a12.457,12.457,0,0,1-11.766-1.508,11.54,11.54,0,0,1-4.048-5.355l-10.3,2.6a11.552,11.552,0,0,1-2.237,4.84c-.226.289-.478.566-.729.83l2.414,4.613a12.382,12.382,0,0,1,10.056,2.049,11.313,11.313,0,0,1,2.288,16.341,12.432,12.432,0,0,1-15.411,3.218l-10.76,13.626h0l-17.586,5.355-12,15.2-.679,17.6h0l-14.028,17.749h0l-8.41,2.64a61.471,61.471,0,0,0,18.265,2.363l4.324,2.967.453-.138A11.313,11.313,0,0,1,185.173,239.054Z" transform="translate(41.382 35.845)"/>
    <path id="Trazado_67" data-name="Trazado 67" class="cls-2" d="M228.692,142.842a7.379,7.379,0,0,0,5.619,1.257c-3.055-7.806-6.423-12.105-6.373-11.074l-.364-.314-.277.364a6.838,6.838,0,0,0,1.4,9.767Z" transform="translate(58.048 34.11)"/>
    <path id="Trazado_68" data-name="Trazado 68" class="cls-2" d="M304.383,268.755a6.838,6.838,0,0,0,1.383,9.817,7.542,7.542,0,0,0,10.207-1.358,6.851,6.851,0,0,0-1.383-9.83A7.542,7.542,0,0,0,304.383,268.755Z" transform="translate(77.854 68.367)"/>
    <path id="Trazado_69" data-name="Trazado 69" class="cls-2" d="M331.073,265.284a6.851,6.851,0,0,0,1.383,9.83,7.542,7.542,0,0,0,10.207-1.358,6.851,6.851,0,0,0-1.383-9.83A7.542,7.542,0,0,0,331.073,265.284Z" transform="translate(84.714 67.477)"/>
    <path id="Trazado_70" data-name="Trazado 70" class="cls-2" d="M360.681,271.484a24.742,24.742,0,0,0-3.1-5.48L317.188,228.18l-5.757,7.844-.679,17.737h0l-14.016,17.762h0l-15.474,4.752a11.314,11.314,0,0,1-1.257,12.256,11.882,11.882,0,0,1-4.915,3.671l11.049,6.675,4.9-6.2h0l15.4-4.726a11.313,11.313,0,0,1,1.219-12.231,12.445,12.445,0,0,1,16.97-2.263,11.552,11.552,0,0,1,3.909,5.028l10.547-2.765a11.465,11.465,0,0,1,2.149-4.437,12.445,12.445,0,0,1,16.97-2.263A11.886,11.886,0,0,1,360.681,271.484Z" transform="translate(70.706 58.649)"/>
    <path id="Trazado_71" data-name="Trazado 71" class="cls-2" d="M234.909,197.767h0l18.415-23.343-.415-.277a12.179,12.179,0,0,1-1.421-1.257l-9.8,2.514a11.313,11.313,0,0,1-1.835,10.81,12.445,12.445,0,0,1-14.054,3.834L194.47,229.016a11.389,11.389,0,0,1,3.771,8.472l24.449-7.542,11.5-14.569.679-17.6h0Z" transform="translate(49.984 44.438)"/>
    <path id="Trazado_72" data-name="Trazado 72" class="cls-2" d="M162.973,207.2a6.788,6.788,0,0,0,.629-7.542l-.276.352-.276-1.169a6.964,6.964,0,0,0-1.446-1.471,7.542,7.542,0,0,0-10.207,1.358,6.838,6.838,0,0,0,1.37,9.83A7.542,7.542,0,0,0,162.973,207.2Z" transform="translate(38.529 50.369)"/>
    <path id="Trazado_73" data-name="Trazado 73" class="cls-2" d="M267.149,293.928a11.451,11.451,0,0,1,4.048,5.342l10.295-2.6a11.4,11.4,0,0,1,2.237-4.84c.226-.289.478-.553.717-.817l-2.4-4.613a12.444,12.444,0,0,1-10.056-2.061A11.313,11.313,0,0,1,269.7,268a12.419,12.419,0,0,1,15.4-3.218l10.76-13.626h0l17.536-5.368,12-15.2.666-17.6h0l.3-.39a50.78,50.78,0,0,0-5.556-9.943,12.571,12.571,0,0,1-8.372,1.446l-32.017,39.961a11.313,11.313,0,0,1-.088,13.991,12.444,12.444,0,0,1-16.882,2.326l-10.886,2.753a11.314,11.314,0,0,1-2.25,9.252,12.457,12.457,0,0,1-16.97,2.25,11.313,11.313,0,0,1-2.275-16.341,12.281,12.281,0,0,1,9.8-4.613l18.6-23.557.679-17.6h0l14.028-17.762h0l28.509-8.8-30.91-25.342a11.313,11.313,0,0,1,.276,14.456,12.281,12.281,0,0,1-9.8,4.613l-18.6,23.557-.679,17.6h0l-14.028,17.774h0l-31.426,9.629a12.394,12.394,0,0,1-11.653,3.771l62.562,42.99s.7.352,2,.867a12.444,12.444,0,0,1,16.719-1.948Z" transform="translate(47.774 41.284)"/>
    <path id="Trazado_74" data-name="Trazado 74" class="cls-2" d="M149.187,219.231l-10.282,2.6a11.313,11.313,0,0,1-2.225,4.814L149.8,235.27a37.008,37.008,0,0,0,7.655,4.9l14.154-4.337,11.5-14.569.666-17.6h0l.3-.352,14.267-18.076h0l17.473-5.367L225.879,167.2a11.313,11.313,0,0,1,.943-12.746,10.759,10.759,0,0,1,1.081-1.182l-2.288-4.387a12.571,12.571,0,0,1-8.8-.867l-16.631,5.028-11.5,14.569-.666,17.6h0l-17.963,22.752a11.313,11.313,0,0,1,.113,14.255,12.432,12.432,0,0,1-16.957,2.263A11.589,11.589,0,0,1,149.187,219.231Z" transform="translate(35.131 38.045)"/>
    <path id="Trazado_75" data-name="Trazado 75" class="cls-2" d="M285.483,192.19a7.542,7.542,0,0,0,7.542.666,30.817,30.817,0,0,0-2.514-2.577l-7.417-6.109A6.838,6.838,0,0,0,285.483,192.19Z" transform="translate(72.645 47.337)"/>
    <path id="Trazado_76" data-name="Trazado 76" class="cls-2" d="M249.971,269.89a7.542,7.542,0,0,0-8.661,0,54.639,54.639,0,0,0,10.295,1.747A7.063,7.063,0,0,0,249.971,269.89Z" transform="translate(62.023 69.018)"/>
    <path id="Trazado_77" data-name="Trazado 77" class="cls-2" d="M266.142,247.485a7.542,7.542,0,0,0-10.207,1.37,6.826,6.826,0,0,0,1.37,9.817,7.542,7.542,0,0,0,10.207-1.358,6.838,6.838,0,0,0-1.37-9.83Z" transform="translate(65.399 63.252)"/>
    <path id="Trazado_78" data-name="Trazado 78" class="cls-2" d="M278.67,276.294a6.826,6.826,0,0,0-1.37-9.817,7.543,7.543,0,0,0-10.207,1.357,6.813,6.813,0,0,0,.188,8.711l3.846,2.263A7.442,7.442,0,0,0,278.67,276.294Z" transform="translate(68.27 68.132)"/>
    <path id="Trazado_79" data-name="Trazado 79" class="cls-2" d="M235.392,239.715a7.542,7.542,0,0,0-10.207,1.37,6.826,6.826,0,0,0,1.37,9.817,7.542,7.542,0,0,0,10.207-1.358,6.838,6.838,0,0,0-1.37-9.83Z" transform="translate(57.495 61.255)"/>
    <path id="Trazado_80" data-name="Trazado 80" class="cls-2" d="M357.036,274.783a12.445,12.445,0,0,1-16.97,2.262,11.513,11.513,0,0,1-4.047-5.342l-10.3,2.589a11.525,11.525,0,0,1-2.238,4.852c-.226.289-.478.553-.729.817l-5.72,3.356a12.483,12.483,0,0,1-8.8-.867l-16.568,5.1L288.39,291.7l25.241,15.235s22.991,5.971,38.968-15.763c6.046-8.2,7.328-15.738,6.75-21.784a11.393,11.393,0,0,1-2.313,5.393Z" transform="translate(74.124 69.241)"/>
    <path id="Trazado_81" data-name="Trazado 81" class="cls-2" d="M137.065,234.266A12.445,12.445,0,0,1,154.035,232a11.553,11.553,0,0,1,3.909,5.028l10.521-2.652a11.414,11.414,0,0,1,2.15-4.45,12.432,12.432,0,0,1,14.632-3.583l15.914-21.508.666-17.749h0l14.028-17.762h0l15.449-4.714a11.313,11.313,0,0,1,1.257-12.269,12.457,12.457,0,0,1,16.97-2.263,11.577,11.577,0,0,1,3.909,5.028l10.521-2.665a11.538,11.538,0,0,1,2.15-4.437c.163-.2.327-.377.49-.553-17.1-14.607-83.693-71.475-84.221-71.211C153.218,53.808,106.23,62.582,79.443,95.478,65.1,113.076,58.262,135.59,60.688,157.16c1.911,17.083,9.465,31.74,21.281,41.482,0,.478,29.678,20.112,54.467,36.454Q136.731,234.666,137.065,234.266ZM84.471,194.192c-10.4-8.887-17.045-22.124-18.767-37.547-2.275-20.226-.453-38.691,17.6-59.193,16.555-18.742,38.968-28.673,60.689-28.673a57.333,57.333,0,0,1,35.687,11.7l.792.666a10.056,10.056,0,0,0,2.514,3.092c8.623,7.919,29.176,40.413.126,84.749-26.775,40.866-74.29,43.518-95.76,26.523A5.028,5.028,0,0,0,84.471,194.192Z" transform="translate(15.475 16.397)"/>
    <path id="Trazado_82" data-name="Trazado 82" class="cls-2" d="M290.058,186.12l-24.437,7.542-11.514,14.569-.666,17.6h0L235,249.16l.427.276a12.2,12.2,0,0,1,1.421,1.257l9.8-2.514a11.313,11.313,0,0,1,1.835-10.81,12.419,12.419,0,0,1,14.041-3.771l31.325-38.968A11.427,11.427,0,0,1,290.058,186.12Z" transform="translate(60.402 47.838)"/>
    <path id="Trazado_83" data-name="Trazado 83" class="cls-2" d="M243.9,173.574a7.542,7.542,0,0,0,10.207-1.358,6.838,6.838,0,0,0-1.37-9.83,7.542,7.542,0,0,0-10.207,1.358,6.838,6.838,0,0,0,1.37,9.83Z" transform="translate(61.952 41.378)"/>
    <path id="Trazado_84" data-name="Trazado 84" class="cls-2" d="M183.583,221.485a6.838,6.838,0,0,0,1.383,9.817,7.542,7.542,0,0,0,10.207-1.358,6.851,6.851,0,0,0-1.383-9.83A7.542,7.542,0,0,0,183.583,221.485Z" transform="translate(46.805 56.217)"/>
    <path id="Trazado_85" data-name="Trazado 85" class="cls-2" d="M306.891,235.99h0l7.881-9.918-5.38-5.028a7.6,7.6,0,0,1,.063-1.194l-12.834,16.266h0l-17.548,5.292-10.056,12.671a11.314,11.314,0,0,1-.943,12.746,12.3,12.3,0,0,1-1.094,1.194l2.288,4.375a12.57,12.57,0,0,1,8.8.867l16.643-5.091L306.2,253.6l.679-17.6h0Z" transform="translate(68.621 56.508)"/>
    <path id="Trazado_86" data-name="Trazado 86" class="cls-2" d="M230.223,183.556a6.838,6.838,0,0,0-1.37-9.83,7.542,7.542,0,0,0-10.207,1.358,6.838,6.838,0,0,0,1.37,9.83A7.542,7.542,0,0,0,230.223,183.556Z" transform="translate(55.814 44.293)"/>
    <path id="Trazado_87" data-name="Trazado 87" class="cls-2" d="M249.065,229.684a6.838,6.838,0,0,0,1.37,9.83,7.542,7.542,0,0,0,10.207-1.358,6.838,6.838,0,0,0-1.37-9.83A7.542,7.542,0,0,0,249.065,229.684Z" transform="translate(63.633 58.326)"/>
    <path id="Trazado_88" data-name="Trazado 88" class="cls-3" d="M93.993,177.929l-6.612-6.549a10.508,10.508,0,0,1-3.13-7.743V126.655a10.358,10.358,0,0,1,3.13-7.542l6.612-6.625a9.918,9.918,0,0,1,7.3-2.979h20.112a10.157,10.157,0,0,1,7.442,3.13l7.165,7.152V81.49h12.57v85.4l3.13,14.016H138.956l-2.388-10.886-7.756,7.756a10.157,10.157,0,0,1-7.442,3.13H101.258a9.918,9.918,0,0,1-7.266-2.979Zm3.57-14.3,4.173,4.173a2.74,2.74,0,0,0,1.936.893h17.1a2.715,2.715,0,0,0,1.936-.892l12.57-12.57a2.438,2.438,0,0,0,.754-1.8V137.088a2.589,2.589,0,0,0-.754-1.936l-12.721-12.671a2.589,2.589,0,0,0-1.936-.742H103.621a2.6,2.6,0,0,0-1.936.742l-4.173,4.173a2.64,2.64,0,0,0-.742,1.936v33.236a2.514,2.514,0,0,0,.742,1.8Z" transform="translate(21.654 20.945)"/>
    <path id="Trazado_89" data-name="Trazado 89" class="cls-3" d="M161.164,172.2l-6.524-6.549a10.345,10.345,0,0,1-3.13-7.605V147.61a10.182,10.182,0,0,1,3.13-7.454l6.411-6.4a10.132,10.132,0,0,1,7.454-2.992H201.59v-8.045a2.514,2.514,0,0,0-.893-1.785l-4.173-4.173a2.6,2.6,0,0,0-1.936-.742H170.253a2.514,2.514,0,0,0-1.785.892l-6.863,6.851-8.636-8.648,8.2-8.347a9.943,9.943,0,0,1,7.3-2.979H197.09a10.622,10.622,0,0,1,7.3,2.979l6.549,6.562a10.358,10.358,0,0,1,3.13,7.542v36.969a2.815,2.815,0,0,0,.754,2.087l6.4,6.285-9.088,8.938-7.6-7.454-4.638,4.5a9.943,9.943,0,0,1-7.3,2.979H168.468a9.943,9.943,0,0,1-7.3-2.979Zm3.532-14.167,4.324,4.324a2.024,2.024,0,0,0,1.5.6h20.578a2.715,2.715,0,0,0,1.936-.892l7.6-7.605a2.69,2.69,0,0,0,.893-1.936v-9.5H170.856a2.665,2.665,0,0,0-1.948.742L164.7,147.9a2.652,2.652,0,0,0-.742,1.936v6.411A2.514,2.514,0,0,0,164.7,158.031Z" transform="translate(38.942 26.677)"/>
    <path id="Trazado_90" data-name="Trazado 90" class="cls-3" d="M234.9,177.929l-6.562-6.549a10.345,10.345,0,0,1-3.13-7.605V121.74H213.73V109.509h11.477V81.49h12.57v28.019h24.009V121.74H237.777v40.087a2.514,2.514,0,0,0,.754,1.936L242.7,167.8a2.7,2.7,0,0,0,1.936.892h17.146v12.218H242.2a9.943,9.943,0,0,1-7.3-2.979Z" transform="translate(54.935 20.945)"/>
    <path id="Trazado_91" data-name="Trazado 91" class="cls-3" d="M271.8,172.2l-6.562-6.549a10.345,10.345,0,0,1-3.13-7.605V147.61a10.182,10.182,0,0,1,3.13-7.454l6.411-6.4a10.132,10.132,0,0,1,7.454-2.992h33.148v-8.045a2.514,2.514,0,0,0-.893-1.785l-4.173-4.173a2.6,2.6,0,0,0-1.936-.742H280.89a2.514,2.514,0,0,0-1.785.892l-6.863,6.851-8.636-8.648,8.2-8.347a9.943,9.943,0,0,1,7.3-2.979h28.622a10.622,10.622,0,0,1,7.3,2.979l6.549,6.562a10.358,10.358,0,0,1,3.13,7.542v36.969a2.816,2.816,0,0,0,.754,2.087l6.4,6.285-9.089,8.938-7.6-7.454-4.613,4.475a9.944,9.944,0,0,1-7.3,2.979H279.106a9.944,9.944,0,0,1-7.3-2.954Zm3.57-14.167,4.324,4.324a2.024,2.024,0,0,0,1.5.6h20.565a2.715,2.715,0,0,0,1.936-.892l7.605-7.605a2.69,2.69,0,0,0,.892-1.936v-9.5h-30.7a2.665,2.665,0,0,0-1.948.742l-4.173,4.173a2.653,2.653,0,0,0-.742,1.936v6.411A2.514,2.514,0,0,0,275.372,158.031Z" transform="translate(67.369 26.677)"/>
    <path id="Trazado_92" data-name="Trazado 92" class="cls-3" d="M128.377,290.238V203.051H113.77V190.82h27.139v99.418Z" transform="translate(29.242 49.046)"/>
    <path id="Trazado_93" data-name="Trazado 93" class="cls-3" d="M160.469,281.53l-6.549-6.562a10.331,10.331,0,0,1-3.13-7.542v-37.17a10.358,10.358,0,0,1,3.13-7.605l6.549-6.549a9.943,9.943,0,0,1,7.3-2.992h29.666a9.943,9.943,0,0,1,7.3,2.992l6.562,6.549a10.358,10.358,0,0,1,3.13,7.605v22.626H163.31v12.671a2.426,2.426,0,0,0,.742,1.8l4.023,4.022a2.715,2.715,0,0,0,1.936.893h25.643a2.59,2.59,0,0,0,1.785-.892l8.2-8.2,8.8,8.636-9.692,9.692a9.943,9.943,0,0,1-7.3,2.979H167.773A9.944,9.944,0,0,1,160.469,281.53Zm2.841-40.841h38.6v-8.5a2.715,2.715,0,0,0-.893-1.936l-4.173-4.173a2.514,2.514,0,0,0-1.8-.742H170.161a2.64,2.64,0,0,0-1.936.742l-4.173,4.173a2.6,2.6,0,0,0-.742,1.936Z" transform="translate(38.757 54.775)"/>
    <path id="Trazado_94" data-name="Trazado 94" class="cls-3" d="M216.23,318.921V306.7h16.052a2.514,2.514,0,0,0,1.8-.754l4.173-4.173a2.716,2.716,0,0,0,.893-1.936V231.281H224.577V219.05H251.7v82.436a10.7,10.7,0,0,1-3.08,7.932l-6.562,6.562a9.943,9.943,0,0,1-7.3,2.979ZM236.493,206.09V190h16.253v16.09Z" transform="translate(55.577 48.835)"/>
    <path id="Trazado_95" data-name="Trazado 95" class="cls-3" d="M270.982,281.73l-6.562-6.562a10.346,10.346,0,0,1-3.13-7.542v-37.12a10.358,10.358,0,0,1,3.13-7.605l6.562-6.562a9.919,9.919,0,0,1,7.3-2.979h29.653a9.918,9.918,0,0,1,7.3,2.979L321.8,222.9a10.359,10.359,0,0,1,3.1,7.605v37.107a10.346,10.346,0,0,1-3.13,7.542l-6.562,6.562a9.918,9.918,0,0,1-7.3,2.979H278.26a9.918,9.918,0,0,1-7.278-2.967Zm3.57-14.167,4.173,4.173a2.614,2.614,0,0,0,1.936.754h25.052a2.438,2.438,0,0,0,1.785-.754l4.022-4.022a2.715,2.715,0,0,0,.893-1.936V232.241a2.715,2.715,0,0,0-.892-1.936l-4.023-4.022a2.426,2.426,0,0,0-1.785-.742H280.636a2.6,2.6,0,0,0-1.936.742l-4.173,4.224a2.639,2.639,0,0,0-.742,1.936v33.236a2.615,2.615,0,0,0,.742,1.886Z" transform="translate(67.159 54.839)"/>
  </g>
</svg>
